<svg height='300px' width='300px'  fill="#494948" xmlns:dc="http://purl.org/dc/elements/1.1/" xmlns:cc="http://creativecommons.org/ns#" xmlns:rdf="http://www.w3.org/1999/02/22-rdf-syntax-ns#" xmlns:svg="http://www.w3.org/2000/svg" xmlns="http://www.w3.org/2000/svg" xmlns:sodipodi="http://sodipodi.sourceforge.net/DTD/sodipodi-0.dtd" xmlns:inkscape="http://www.inkscape.org/namespaces/inkscape" version="1.1" viewBox="0 0 16 16" x="0px" y="0px"><g transform="translate(0,-1036.3622)"><path style="opacity:1;fill:#494948;fill-opacity:1;stroke:none;stroke-width:1.00000012;stroke-linecap:round;stroke-linejoin:round;stroke-miterlimit:4;stroke-dasharray:none;stroke-dashoffset:0;stroke-opacity:1" d="m 7.0882,1037.1936 a 3.3046175,3.3046175 0 0 0 -3.3054,3.3053 3.3046175,3.3046175 0 0 0 1.6538,2.86 A 6.0874535,6.5478493 0 0 0 1,1049.6544 c 0,0.2268 0.19352,0.4102 0.4344,0.4102 l 7.31202,0 c -0.25211,-0.4739 -0.40794,-1.007 -0.40794,-1.5811 10e-6,-1.783 1.38216,-3.2277 3.1312,-3.3605 a 6.0874535,6.5478493 0 0 0 -2.72988,-1.7685 3.3046175,3.3046175 0 0 0 1.6516,-2.8556 3.3046175,3.3046175 0 0 0 -3.3032,-3.3053 z m 5.08931,8.6923 a 2.8225012,2.8225012 0 0 0 -2.82249,2.8225 2.8225012,2.8225012 0 0 0 2.82249,2.8225 2.8225012,2.8225012 0 0 0 2.82249,-2.8225 2.8225012,2.8225012 0 0 0 -2.82249,-2.8225 z m -0.009,1.1224 a 0.56455475,0.56455475 0 0 1 0.57332,0.5711 l 0,0.5645 0.5645,0 a 0.56455475,0.56455475 0 1 1 0,1.129 l -0.5645,0 0,0.5645 a 0.56455475,0.56455475 0 1 1 -1.129,0 l 0,-0.5645 -0.5645,0 a 0.56455475,0.56455475 0 1 1 0,-1.129 l 0.5645,0 0,-0.5645 a 0.56455475,0.56455475 0 0 1 0.55568,-0.5711 z"></path></g><style type="text/css">
	.st0{fill:#494948;}
</style></svg>