<?xml version="1.0" encoding="utf-8"?>
<!-- Generator: Adobe Illustrator 19.0.0, SVG Export Plug-In . SVG Version: 6.00 Build 0)  -->
<svg version="1.1" id="Layer_1" xmlns="http://www.w3.org/2000/svg" xmlns:xlink="http://www.w3.org/1999/xlink" x="0px" y="0px"
	 viewBox="0 0 230 150" style="enable-background:new 0 0 230 150;" xml:space="preserve">
<style type="text/css">
	.st0{display:none;}
	.st1{display:inline;fill:#F06424;}
	.st2{display:inline;fill:#FFCE34;}
	.st3{display:inline;fill:#FCEE2B;}
	.st4{display:inline;}
	.st5{fill:#F58220;}
	.st6{fill:#F06424;}
	.st7{fill:#FFCE34;}
	.st8{fill:#FCEE2B;}
	.st9{display:inline;fill:#F58220;}
</style>
<g id="XMLID_2_" class="st0">
	<path id="XMLID_138_" class="st1" d="M141.1-62.9c2.8,0,5.6,0,8.4,0c0.6,0,1.2,0,1.8,0.1c2,0.3,3.2,1.8,2.8,3.8
		c-0.7,4.6-2.5,8.7-5.2,12.5c-1.3,1.8-3.3,1.9-5,0.3c-2.2-2.1-4.3-4.2-6.4-6.3c-2.4-2.3-4.7-4.7-7.1-7c-0.4-0.4-0.7-0.7-1-1.2
		c-0.6-0.9-0.3-1.6,0.7-1.9c0.8-0.2,1.6-0.3,2.3-0.3C135.3-62.9,138.2-62.9,141.1-62.9z"/>
	<path id="XMLID_137_" class="st1" d="M123.5-47.7c0,2.8,0,5.7,0,8.5c0,0.6,0,1.1-0.1,1.7c-0.3,2.2-1.8,3.4-4,3
		c-4.6-0.8-8.8-2.6-12.5-5.4c-1.3-1-1.5-2.5-0.7-3.9c0.4-0.6,0.9-1.1,1.4-1.6c4.2-4.2,8.4-8.4,12.7-12.6c0.7-0.6,1.3-1.7,2.4-1.2
		c1.1,0.4,0.9,1.7,0.9,2.6C123.5-53.7,123.5-50.7,123.5-47.7z"/>
	<path id="XMLID_136_" class="st2" d="M107.9-64.9c-3,0-5.9,0-8.9,0c-3.2,0-4.4-1.4-3.8-4.6c0.7-4.1,2.3-7.8,4.7-11.2
		c1.6-2.4,3.7-2.6,5.8-0.5c4.5,4.5,9,9,13.5,13.5c0.5,0.5,1,1,0.7,1.8c-0.2,0.7-0.9,0.8-1.5,0.9c-0.5,0.1-1,0.1-1.5,0.1
		C113.8-64.8,110.9-64.9,107.9-64.9z"/>
	<path id="XMLID_135_" class="st2" d="M108.4-62.7c2.8,0,5.7,0,8.5,0c0.4,0,0.8,0,1.2,0c0.7,0.1,1.4,0.1,1.7,0.9
		c0.3,0.8-0.2,1.4-0.7,1.9c-3.4,3.4-6.8,6.8-10.2,10.2c-1.1,1.1-2.3,2.3-3.4,3.4c-1.8,1.7-3.9,1.6-5.3-0.5
		c-2.5-3.5-4.1-7.4-4.9-11.6c-0.5-2.7,0.9-4.3,3.7-4.4C102.1-62.7,105.3-62.7,108.4-62.7z"/>
	<path id="XMLID_134_" class="st1" d="M140.9-65c-3.2,0-6.3,0-9.5,0c-0.5,0-1,0-1.4-0.1c-1-0.3-1.3-1-0.7-1.9c0.5-0.6,1-1.2,1.6-1.8
		c4.1-4.1,8.3-8.2,12.4-12.2c2.4-2.3,4.3-2.1,6.2,0.7c2.3,3.4,3.8,7.2,4.5,11.2c0.4,2.5-0.9,4.1-3.4,4.1C147.4-65,144.2-65,140.9-65
		z"/>
	<path id="XMLID_133_" class="st2" d="M125.6-47.7c0-3.1,0-6.2,0-9.2c0-0.4,0-0.8,0.1-1.2c0.2-1.3,1.1-1.6,2.2-0.9
		c0.3,0.2,0.6,0.5,0.9,0.8c4.3,4.3,8.6,8.7,13,13c2.3,2.3,2.1,4.2-0.6,6c-3.4,2.3-7.1,3.8-11.1,4.6c-2.7,0.5-4.4-0.8-4.4-3.6
		C125.6-41.3,125.6-44.5,125.6-47.7z"/>
	<path id="XMLID_132_" class="st3" d="M123.3-80.1c0,3.2,0,6.5,0,9.7c0,0.7,0.1,1.5-0.7,1.9c-0.8,0.3-1.4-0.2-2-0.8
		c-4.5-4.5-9.1-9-13.5-13.6c-1.9-2-1.7-3.9,0.5-5.4c3.6-2.6,7.7-4.1,12.1-4.9c2-0.4,3.6,1,3.6,3.2C123.3-86.7,123.3-83.4,123.3-80.1
		C123.3-80.1,123.3-80.1,123.3-80.1z"/>
	<path id="XMLID_131_" class="st2" d="M125.6-80.2c0-3.2,0-6.3,0-9.5c0-2.8,1.7-4.1,4.4-3.6c4.1,0.8,7.9,2.4,11.4,4.8
		c2.1,1.5,2.4,3.2,0.7,5.2c-1.3,1.5-2.8,2.8-4.2,4.2c-3.2,3.1-6.3,6.3-9.5,9.5c-0.3,0.3-0.7,0.7-1.1,1c-0.7,0.5-1.4,0.3-1.6-0.6
		c-0.1-0.4-0.1-0.9-0.1-1.4C125.6-73.8,125.6-77,125.6-80.2z"/>
	<g id="XMLID_1_" class="st4">
		<g id="XMLID_62_">
			<g id="XMLID_65_">
				<path id="XMLID_66_" class="st5" d="M100.7-40.5c-6.1-6-9.9-14.4-9.9-23.7c0-18.3,14.9-33.3,33.3-33.3c6.6,0,12.7,1.9,17.9,5.2
					l9.6-3.3c-7.3-6.5-17-10.4-27.5-10.4c-23,0-41.7,18.7-41.7,41.7c0,10.1,3.6,19.4,9.7,26.6L100.7-40.5z"/>
			</g>
			<g id="XMLID_63_">
				<path id="XMLID_64_" class="st5" d="M156.4-90.5l-8.6,3c5.9,6,9.6,14.3,9.6,23.4c0,18.3-14.9,33.3-33.3,33.3
					c-6.4,0-12.4-1.8-17.5-5L97-32.5c7.3,6.3,16.8,10.1,27.1,10.1c23,0,41.7-18.7,41.7-41.7C165.8-74.1,162.3-83.3,156.4-90.5z"/>
			</g>
		</g>
	</g>
</g>
<path id="XMLID_49_" class="st6" d="M131,74.7c2.6,0,5.3,0,7.9,0c0.6,0,1.1,0,1.7,0.1c1.9,0.3,3,1.7,2.7,3.6
	c-0.7,4.3-2.3,8.2-4.9,11.8c-1.2,1.7-3.2,1.8-4.7,0.3c-2.1-2-4.1-4-6.1-5.9c-2.2-2.2-4.4-4.4-6.7-6.6c-0.3-0.3-0.7-0.7-0.9-1.1
	c-0.5-0.8-0.3-1.5,0.7-1.8c0.7-0.2,1.5-0.3,2.2-0.3C125.6,74.7,128.3,74.7,131,74.7z"/>
<path id="XMLID_46_" class="st6" d="M114.4,89.2c0,2.7,0,5.4,0,8c0,0.5,0,1-0.1,1.6c-0.3,2.1-1.7,3.2-3.8,2.8
	c-4.3-0.7-8.3-2.4-11.8-5.1c-1.2-0.9-1.4-2.4-0.7-3.7c0.3-0.6,0.8-1.1,1.3-1.5c4-4,8-8,11.9-11.9c0.6-0.6,1.2-1.6,2.2-1.2
	c1,0.4,0.9,1.6,0.9,2.5C114.4,83.5,114.4,86.3,114.4,89.2z"/>
<path id="XMLID_43_" class="st7" d="M99.7,72.9c-2.8,0-5.6,0-8.4,0c-3,0-4.1-1.4-3.6-4.3c0.6-3.9,2.2-7.3,4.4-10.5
	c1.5-2.2,3.5-2.4,5.5-0.5c4.3,4.2,8.5,8.5,12.7,12.7c0.5,0.5,0.9,1,0.7,1.7c-0.2,0.7-0.9,0.7-1.5,0.9c-0.5,0.1-1,0.1-1.4,0.1
	C105.3,72.9,102.5,72.9,99.7,72.9z"/>
<path id="XMLID_40_" class="st7" d="M100.2,74.9c2.7,0,5.4,0,8.1,0c0.4,0,0.7,0,1.1,0c0.6,0.1,1.3,0.1,1.6,0.8
	c0.3,0.7-0.1,1.3-0.6,1.8c-3.2,3.2-6.4,6.4-9.6,9.7c-1.1,1.1-2.1,2.2-3.2,3.2c-1.7,1.6-3.7,1.5-5-0.4c-2.4-3.3-3.9-6.9-4.6-10.9
	c-0.5-2.6,0.8-4.1,3.5-4.1C94.2,74.9,97.2,74.9,100.2,74.9z"/>
<path id="XMLID_37_" class="st6" d="M130.9,72.8c-3,0-6,0-8.9,0c-0.4,0-0.9,0-1.3-0.1c-1-0.3-1.2-1-0.6-1.8c0.4-0.6,1-1.1,1.5-1.7
	c3.9-3.9,7.8-7.7,11.7-11.5c2.2-2.2,4.1-2,5.8,0.6c2.2,3.2,3.6,6.8,4.3,10.6c0.4,2.3-0.9,3.9-3.2,3.9
	C137,72.8,133.9,72.8,130.9,72.8z"/>
<path id="XMLID_34_" class="st7" d="M116.4,89.2c0-2.9,0-5.8,0-8.7c0-0.4,0-0.8,0.1-1.1c0.2-1.2,1.1-1.5,2-0.8
	c0.3,0.2,0.6,0.5,0.8,0.8c4.1,4.1,8.2,8.2,12.2,12.3c2.2,2.2,2,4-0.6,5.7c-3.2,2.2-6.7,3.6-10.5,4.3c-2.6,0.5-4.1-0.8-4.1-3.4
	C116.4,95.1,116.4,92.1,116.4,89.2z"/>
<path id="XMLID_12_" class="st8" d="M114.2,58.5c0,3.1,0,6.1,0,9.2c0,0.7,0.1,1.4-0.7,1.8c-0.8,0.3-1.3-0.2-1.9-0.7
	c-4.3-4.3-8.5-8.5-12.8-12.8c-1.8-1.9-1.6-3.6,0.5-5.1c3.4-2.4,7.3-3.9,11.4-4.6c1.9-0.3,3.4,1,3.4,3
	C114.3,52.3,114.2,55.4,114.2,58.5C114.2,58.5,114.2,58.5,114.2,58.5z"/>
<path id="XMLID_8_" class="st7" d="M116.4,58.5c0-3,0-6,0-9c0-2.6,1.6-3.9,4.2-3.4c3.9,0.8,7.5,2.2,10.7,4.5c2,1.4,2.3,3,0.7,4.9
	c-1.2,1.4-2.6,2.6-4,3.9c-3,3-6,6-8.9,8.9c-0.3,0.3-0.6,0.6-1,0.9c-0.7,0.5-1.3,0.3-1.6-0.6c-0.1-0.4-0.1-0.9-0.1-1.3
	C116.4,64.4,116.4,61.5,116.4,58.5z"/>
<g id="XMLID_3_">
	<g id="XMLID_123_">
		<g id="XMLID_126_">
			<path id="XMLID_127_" class="st5" d="M93,95.9c-5.8-5.7-9.4-13.6-9.4-22.3c0-17.3,14.1-31.4,31.4-31.4c6.2,0,12,1.8,16.9,4.9
				l9-3.1c-6.9-6.1-16-9.8-25.9-9.8c-21.7,0-39.3,17.6-39.3,39.3c0,9.6,3.4,18.3,9.1,25.1L93,95.9z"/>
		</g>
		<g id="XMLID_124_">
			<path id="XMLID_125_" class="st5" d="M145.5,48.8l-8.1,2.8c5.6,5.7,9.1,13.5,9.1,22c0,17.3-14.1,31.4-31.4,31.4
				c-6,0-11.7-1.7-16.5-4.7l-9.1,3.1c6.9,5.9,15.8,9.5,25.6,9.5c21.7,0,39.3-17.6,39.3-39.3C154.3,64.2,151,55.5,145.5,48.8z"/>
		</g>
	</g>
</g>
<g id="XMLID_9_" class="st0">
	<path id="XMLID_10_" class="st9" d="M26.6,49.9c5,0.1,10.2,0.2,14.3,3.6c4.5,3.7,4.6,8.7,4.6,10.3c0,5.3-2,10.1-6.9,12.1
		c-0.9,0.4-1.8,0.7-2.9,0.9c1,0.2,2,0.5,2.9,1c3.2,1.7,4,5,4.8,9.7c0.2,1.3,0.4,2.6,0.6,4c0.1,0.9,0.3,1.8,0.6,2.7
		c0.2,0.6,0.5,1.2,0.7,1.8c0.3,0.9,0.3,1.4,0.3,1.6c0,2.3-1.8,4.8-5.3,4.8c-6,0-6.9-5.5-7.5-9.4c-0.1-1.2-0.3-2.4-0.5-3.7
		c-1-5.9-3.1-6.5-8.3-6.6h-8v12.5c0,1.6-0.1,3.5-1.2,5c-1.5,2-3.7,2.1-4.5,2.1c-0.9,0-1.6-0.1-2.3-0.4c-3.4-1.3-3.5-4.8-3.5-6.8
		V57.6c0-1.9,0.1-4.3,1.7-5.9c1.7-1.8,4.2-1.8,5.9-1.8H26.6z M16,59.6v13.7h8.2c2.3,0,4.9,0,7-1.3c1.8-1,3-3,3-5.9
		c0-0.9-0.1-2.8-1.4-4.3c-1.8-2-4.7-2.2-8.5-2.2H16z"/>
	<path id="XMLID_35_" class="st9" d="M84.8,94.1c-0.1,2.9-0.1,8-5.3,8c-3.4,0-4.4-2.6-5-4.3c-0.8,0.7-1.2,1.2-2.2,1.9
		c-3,2-6.3,2.9-9.6,2.9c-8.1,0-13.2-4.8-13.2-12.1c0-2.1,0.4-3.6,0.8-4.5c1-2.6,2.8-4,4-4.7c2.9-1.8,5.9-2.4,14.2-3.8
		c3.7-0.7,5.3-1.1,5.3-3.1c0-3.3-4.7-3.3-6.1-3.3c-4.3,0-5.3,1.2-6.4,2.6c-0.5,0.6-1.8,2.1-4,2.1c-2.3,0-4.8-1.8-4.8-4.5
		c0-3.5,3.9-8.5,16-8.5c6.7,0,10,1.7,12.1,3.4c4.2,3.6,4.2,8.4,4.2,12.1V94.1z M74.1,83.3c-1.5,0.7-2.1,0.9-7,1.8
		c-3,0.7-6.8,1.5-6.8,5c0,2.6,2,4,5,4c1.1,0,2.6-0.1,4.5-1c2.9-1.3,3.7-2.9,4.3-3.9V83.3z"/>
	<path id="XMLID_39_" class="st9" d="M126.1,95.4c0,1.6-0.1,3.4-1.2,4.8c-0.7,0.9-2,1.9-4.2,1.9c-1.8,0-3.1-0.7-4-1.5
		c-1.3-1.5-1.4-3.4-1.4-4.9V79.5c0-1.5-0.1-3.1-0.8-4.5c-1-2-2.8-2.9-4.9-2.9c-1.5,0-2.9,0.4-4,1.2c-2.6,2-2.7,5.1-2.7,7.3v15.2
		c-0.1,1.6-0.1,3.4-1.3,4.8c-1,1.1-2.5,1.6-4,1.6c-0.9,0-1.5-0.1-1.9-0.3c-3.3-1-3.4-4.2-3.4-6.1v-26c0-1.8,0.1-3.7,1.8-5.2
		c0.7-0.5,1.8-1.1,3.4-1.1c0.4,0,1.2,0,2.2,0.4c2.5,1,2.9,3.1,3.1,4.5c1.2-1.6,4-5.4,10.2-5.4c3.6,0,5.9,1,7.7,2.2
		c5,3.6,5.3,8.4,5.3,11.8V95.4z"/>
	<path id="XMLID_47_" class="st9" d="M158,55.8c0.1-1.3,0.1-2.6,0.7-3.7c0.9-1.8,2.6-2.8,4.7-2.8c0.8,0,1.7,0.1,2.4,0.5
		c2.8,1.3,2.9,3.9,2.9,6.1v39.2c-0.1,2.3-0.1,7-5.2,7c-1.5-0.1-2.9-0.4-3.9-1.6c-1-1.2-1-2.3-1.1-3.2c-2,2.8-5.1,5.5-10.7,5.5
		c-8.3,0-16.3-6.6-16.3-20.5c0-10.2,5.1-19.3,16.1-19.3c5.4,0,8.4,2.3,10.4,3.8V55.8z M142.2,82.3c0,2.3,0.5,6.9,3,9.5
		c1.7,1.8,3.7,2,5.1,2c7.8,0,7.8-9.3,7.8-10.9c0-2.6-0.5-5.1-1.4-6.9c-1.9-3.9-5.3-4.3-6.9-4.3C144.1,71.7,142.2,77.2,142.2,82.3z"
		/>
	<path id="XMLID_74_" class="st9" d="M177.7,60.8c0-2.6,0.1-6.4,3.4-9.1c1.3-1.1,3.5-2.2,7.8-2.2c1.9,0,6.4,0.1,6.4,4.4
		c0,3.7-2.7,4-3.7,4.1c-3.1,0.4-3.1,1.4-3.1,5.6c3.4,0,4.1,0,5,0.5c0.6,0.3,2,1.2,2,3.4c0,0.5-0.1,1.4-0.5,2.2c-1.2,2-2.7,2-6.4,2
		V95c0,1,0,2-0.2,3.1c-0.3,1.6-1.5,4-5,4c-1.7,0-3.2-0.5-4.1-1.5c-1.3-1.5-1.4-3.6-1.4-5.2V71.7c-1.6,0-5.3,0.1-5.3-4.1
		c0-4,3.7-4,5.3-4V60.8z"/>
	<path id="XMLID_76_" class="st9" d="M215.6,62.8c5.3,0,10.6,2,14.2,5.9c2.7,2.9,4.9,7.9,4.9,13.8c0,12-8.7,20-19.8,20
		c-13.7,0-19.5-10.1-19.5-20C195.4,70.8,203.7,62.8,215.6,62.8z M209.9,73.3c-3.4,2.9-3.4,7.8-3.4,9.1c0,6.9,2.9,11.4,8.6,11.4
		c4.4,0,6.4-3.1,7-4c1.5-2.4,1.7-5.3,1.7-7.5c0-2.3-0.3-4.7-1.4-6.7c-2.3-4.1-6.2-4.1-7.2-4.1C213.9,71.4,211.8,71.6,209.9,73.3z"/>
	<path id="XMLID_79_" class="st9" d="M258.2,62.8c5.3,0,10.6,2,14.2,5.9c2.7,2.9,4.9,7.9,4.9,13.8c0,12-8.7,20-19.8,20
		c-13.7,0-19.5-10.1-19.5-20C238.1,70.8,246.4,62.8,258.2,62.8z M252.5,73.3c-3.4,2.9-3.4,7.8-3.4,9.1c0,6.9,2.9,11.4,8.6,11.4
		c4.4,0,6.4-3.1,7-4c1.5-2.4,1.7-5.3,1.7-7.5c0-2.3-0.3-4.7-1.4-6.7c-2.3-4.1-6.2-4.1-7.2-4.1C256.5,71.4,254.4,71.6,252.5,73.3z"/>
	<path id="XMLID_82_" class="st9" d="M307.3,55.8c0.1-1.3,0.1-2.6,0.7-3.7c0.9-1.8,2.6-2.8,4.7-2.8c0.8,0,1.7,0.1,2.4,0.5
		c2.8,1.3,2.9,3.9,2.9,6.1v39.2c-0.1,2.3-0.1,7-5.2,7c-1.5-0.1-2.9-0.4-3.9-1.6c-1-1.2-1-2.3-1.1-3.2c-2,2.8-5.1,5.5-10.7,5.5
		c-8.3,0-16.3-6.6-16.3-20.5c0-10.2,5.1-19.3,16.1-19.3c5.4,0,8.4,2.3,10.4,3.8V55.8z M291.6,82.3c0,2.3,0.5,6.9,3,9.5
		c1.7,1.8,3.7,2,5.1,2c7.8,0,7.8-9.3,7.8-10.9c0-2.6-0.5-5.1-1.4-6.9c-1.9-3.9-5.3-4.3-6.9-4.3C293.5,71.7,291.6,77.2,291.6,82.3z"
		/>
</g>
</svg>
